<?xml version="1.0" encoding="UTF-8"?>
<svg id="Layer_1" xmlns="http://www.w3.org/2000/svg" version="1.1" viewBox="0 0 491.57 119.97">
  <!-- Generator: Adobe Illustrator 30.5.1, SVG Export Plug-In . SVG Version: 2.1.4 Build 3)  -->
  <defs>
    <style>
      .st0 {
        fill: #fff;
        fill-rule: evenodd;
      }
    </style>
  </defs>
  <g>
    <path class="st0" d="M.83,0h104.84c3.62.73-2.42,4.64-5.9,5.93-.06,3.64-.01,6.7-.02,10.34-12.55.03-25.1,0-37.65.02-1.43,7.6-2.78,15.23-4.25,22.82-3.47-.33-6.98-.23-10.4.46-1.59-7.74-2.96-15.53-4.47-23.29-12.14,0-24.28,0-36.42,0,0-3.62,0-6.66,0-10.28C3.98,5.04-2.23.99.83,0Z"/>
    <path class="st0" d="M6.51,24.95c10.21,0,20.41,0,30.61,0,2.03,5.24,4.19,10.42,6.14,15.68-2.48.77-4.84,1.89-7.08,3.18-1.89-3.31-3.76-6.63-5.64-9.94-8.01,0-16.02,0-24.03,0,0-2.97,0-5.95,0-8.92Z"/>
    <path class="st0" d="M69.42,24.95c10.2,0,20.4,0,30.61,0,0,2.97,0,5.95,0,8.92-8.02,0-16.03-.01-24.04,0-1.87,3.31-3.75,6.63-5.63,9.94-2.26-1.31-4.64-2.39-7.12-3.23,2.06-5.21,4.12-10.43,6.17-15.64Z"/>
    <path class="st0" d="M6.59,41.24c5.86.03,11.72,0,17.58.02,2.16,2.2,4.35,4.37,6.52,6.55-1.91,1.84-3.67,3.82-5.28,5.94-1.45-1.22-2.94-2.39-4.41-3.58-4.81,0-9.61,0-14.42,0,0-2.98-.03-5.95.02-8.93Z"/>
    <path class="st0" d="M82.39,41.25c5.85,0,11.71,0,17.57,0,.02,2.98,0,5.95,0,8.92-4.8,0-9.6,0-14.41,0-1.47,1.18-2.98,2.33-4.4,3.58-1.67-2.07-3.35-4.13-5.34-5.91,2.18-2.2,4.38-4.39,6.56-6.59Z"/>
    <path class="st0" d="M6.47,57.76c4.54,0,9.09,0,13.63,0,.98-.15,1.59.74,2.29,1.25-1.15,2.46-1.96,5.06-2.62,7.7-4.44-.06-8.87,0-13.31-.03,0-2.98,0-5.94,0-8.92Z"/>
    <path class="st0" d="M84.16,59c.49-.41.98-.82,1.46-1.23,4.82-.04,9.63,0,14.45-.01,0,2.97,0,5.94,0,8.92-4.46,0-8.92.03-13.37-.02-.54-2.64-1.45-5.18-2.54-7.65Z"/>
    <path class="st0" d="M6.47,75.06c4.2,0,8.4,0,12.61,0,0,2.98.02,5.95-.02,8.93-4.2-.04-8.4.02-12.6-.03.02-2.97,0-5.93.01-8.9Z"/>
    <path class="st0" d="M87.46,75.06c4.2,0,8.4,0,12.61,0,.01,2.96-.01,5.93.01,8.89-4.19.07-8.38-.02-12.57.05-.11-2.98-.03-5.96-.05-8.94Z"/>
    <path class="st0" d="M6.57,93.55c4.17,0,8.33,0,12.5,0v8.92c-4.17,0-8.34,0-12.5,0,0-2.97,0-5.94,0-8.91Z"/>
    <path class="st0" d="M87.47,93.55c4.17,0,8.33,0,12.5,0,0,2.97,0,5.94,0,8.91-4.17,0-8.33,0-12.5,0,0-2.97,0-5.94,0-8.91Z"/>
    <path class="st0" d="M100.05,110.41h-.19s0,0,0,0h-.39s0,0,0,0h-.19s0,0,0,0h-.39s0,0,0,0h-.19s0,0,0,0h-.39s0,0,0,0h-.39s0,0,0,0h-.39s0,0,0,0h-.39s0,0,0,0h-.58s0,0,0,0h-.58s0,0,0,0h-.98s0,0,0,0h-2.54s0,0,0,0h-.98s0,0,0,0h-.58s0,0,0,0h-.58s0,0,0,0h-.39s0,0,0,0h-.39s0,0,0,0h-.39s0,0,0,0h-.39s0,0,0,0h-.19s0,0,0,0h-.39s0,0,0,0h-.19s0,0,0,0h-.39s0,1.07,0,1.07v.54s0,.07,0,.07h0v.23c0,1.07,0,1.45,0,3.51v.04c.06,2.29,1.65,3.41,3.73,3.44.56,0,1.06,0,1.51,0h3.59c2.08-.03,3.67-1.15,3.73-3.44v-.04c-.01-2.05,0-2.44,0-3.51v-.22h0v-.43s0-.09,0-.09v-1.16Z"/>
    <path class="st0" d="M19.07,110.44h-.19s0,0,0,0h-.39s0,0,0,0h-.19s0,0,0,0h-.39s0,0,0,0h-.19s0,0,0,0h-.39s0,0,0,0h-.39s0,0,0,0h-.39s0,0,0,0h-.39s0,0,0,0h-.58s0,0,0,0h-.58s0,0,0,0h-.98s0,0,0,0h-2.54s0,0,0,0h-.98s0,0,0,0h-.58s0,0,0,0h-.58s0,0,0,0h-.39s0,0,0,0h-.39s0,0,0,0h-.39s0,0,0,0h-.39s0,0,0,0h-.19s0,0,0,0h-.39s0,0,0,0h-.19s0,0,0,0h-.39s0,1.07,0,1.07v.54s0,.07,0,.07h0v.23c0,1.07,0,1.45,0,3.51v.04c.06,2.29,1.65,3.41,3.73,3.44.56,0,1.06,0,1.51,0h3.59c2.08-.03,3.67-1.15,3.73-3.44v-.04c-.01-2.05,0-2.44,0-3.51v-.22h0v-.43s0-.09,0-.09v-1.16Z"/>
    <path class="st0" d="M50.85,57.4c4-1.26,8.58,1.69,9.12,5.83.74,3.92-2.35,7.98-6.32,8.33-3.77.54-7.57-2.41-8-6.19-.57-3.47,1.8-7.07,5.19-7.97Z"/>
    <path class="st0" d="M38.05,68c3.18-1.39,7.21.62,8.05,3.99.99,3.19-1.22,6.86-4.49,7.49-3.07.78-6.47-1.33-7.17-4.41-.78-2.83.87-6.03,3.61-7.07Z"/>
    <path class="st0" d="M63.38,67.96c3.17-1.31,7.1.71,7.93,4.03.98,3.17-1.19,6.81-4.43,7.48-3.11.82-6.56-1.32-7.24-4.45-.76-2.86.95-6.07,3.73-7.06Z"/>
    <path class="st0" d="M28.3,78.24c3.28-1.23,7.01,2.03,6.22,5.45-.48,3.6-5.39,5.29-7.98,2.72-2.76-2.26-1.7-7.23,1.75-8.17Z"/>
    <path class="st0" d="M74.25,78.34c3.33-1.51,7.36,1.82,6.52,5.37-.5,3.54-5.32,5.24-7.91,2.75-2.72-2.16-1.88-6.98,1.39-8.12Z"/>
    <path class="st0" d="M50.68,119.2h4.03c1.74,0,3.16-1.42,3.16-3.16v-35.6c0-2.77-2.26-5.03-5.03-5.03h0c-2.77,0-5.03,2.26-5.03,5.03v35.89c0,1.58,1.29,2.87,2.87,2.87Z"/>
    <path class="st0" d="M38.49,119.42h3.37c1.45,0,2.64-1.19,2.64-2.64v-29.75c0-2.31-1.89-4.2-4.2-4.2h0c-2.31,0-4.2,1.89-4.2,4.2v29.99c0,1.32,1.08,2.4,2.4,2.4Z"/>
    <path class="st0" d="M28.33,119.37h2.68c1.15,0,2.1-.94,2.1-2.1v-23.67c0-1.84-1.5-3.34-3.34-3.34h0c-1.84,0-3.34,1.5-3.34,3.34v23.86c0,1.05.86,1.91,1.91,1.91Z"/>
    <path class="st0" d="M67.36,119.42h-3.37c-1.45,0-2.64-1.19-2.64-2.64v-29.75c0-2.31,1.89-4.2,4.2-4.2h0c2.31,0,4.2,1.89,4.2,4.2v29.99c0,1.32-1.08,2.4-2.4,2.4Z"/>
    <path class="st0" d="M77.52,119.37h-2.68c-1.15,0-2.1-.94-2.1-2.1v-23.67c0-1.84,1.5-3.34,3.34-3.34h0c1.84,0,3.34,1.5,3.34,3.34v23.86c0,1.05-.86,1.91-1.91,1.91Z"/>
  </g>
  <g>
    <path class="st0" d="M130.46,86.95v-11.04s-1.7,0-1.7,0v11.28c0,.66-.12,1.23-.36,1.7-.7,1.36-2.06,2.04-4.08,2.04-1.3,0-2.34-.29-3.12-.87-.9-.67-1.35-1.62-1.35-2.86v-11.28h-1.7v11.04c0,1.79.58,3.19,1.75,4.22,1.1.97,2.57,1.46,4.42,1.46,1.83,0,3.29-.48,4.39-1.46,1.16-1.03,1.75-2.43,1.75-4.22h0ZM212.4,106.2l.04,1.67-2.35,1.51v9.23h-1.7s0-8.14,0-8.14l-2.34,1.5v-1.73s2.34-1.48,2.34-1.48v-8.34h1.7v7.26l2.31-1.47h0ZM258.05,116.79v1.83s1.7,0,1.7,0v-10.67s-1.7,0-1.7,0v4.46c0,1.48-.28,2.64-.83,3.48-.55.84-1.49,1.25-2.81,1.25-.73,0-1.25-.25-1.56-.74-.32-.49-.47-1.09-.47-1.78v-6.67h-1.7v6.67c0,1.24.34,2.25,1.01,3.04.67.79,1.61,1.18,2.8,1.18,1.58,0,2.77-.68,3.57-2.05h0ZM246.84,104.25c-.21-.21-.46-.32-.76-.32s-.55.11-.76.32c-.21.21-.32.47-.32.76s.11.55.32.76c.21.21.47.32.76.32s.55-.11.76-.32c.21-.21.32-.46.32-.76s-.1-.55-.32-.76h0ZM246.94,118.61v-10.67h-1.7v10.67h1.7ZM237.98,119.97l5.07-12.03h-1.89l-3.2,8.22-3.45-8.78-3.45,8.78-3.2-8.22h-1.89l5.12,12.03,3.42-8.61,3.47,8.61h0ZM222.22,113.28c0,1.04-.36,1.94-1.08,2.72-.72.78-1.62,1.16-2.68,1.16s-1.96-.39-2.68-1.16c-.72-.77-1.08-1.68-1.08-2.72s.36-1.94,1.08-2.72c.72-.78,1.62-1.16,2.68-1.16s1.96.39,2.68,1.16c.72.77,1.08,1.68,1.08,2.72h0ZM223.91,118.61v-10.67h-1.7v1.82c-.1-.13-.2-.25-.3-.37-1.01-1.13-2.25-1.7-3.72-1.7-1.48,0-2.72.57-3.72,1.7-.98,1.1-1.47,2.39-1.47,3.88s.49,2.78,1.47,3.88c1.01,1.13,2.25,1.7,3.72,1.7s2.72-.57,3.72-1.7c.11-.12.21-.24.3-.37v1.82h1.7ZM205.72,111.77c-.34-1.21-.98-2.18-1.93-2.91-.99-.76-2.09-1.14-3.31-1.14-1.52,0-2.82.55-3.88,1.65-1.05,1.09-1.58,2.39-1.58,3.91,0,1.51.53,2.81,1.58,3.92.49.51,1.06.91,1.72,1.21.66.3,1.33.45,2.01.45s1.29-.09,1.82-.28c1.71-.59,2.87-1.75,3.47-3.46h-1.92c-.32.6-.77,1.08-1.35,1.43-.57.36-1.2.53-1.88.53-1.04,0-1.92-.38-2.63-1.13-.72-.76-1.08-1.65-1.08-2.68s.36-1.9,1.08-2.66c.33-.35.72-.62,1.18-.82.45-.2,1-.3,1.63-.3s1.25.21,1.87.63c.61.42,1.07.97,1.36,1.65h1.84ZM191.14,113.23c0,1.05-.38,1.96-1.14,2.72-.76.76-1.67,1.14-2.74,1.14s-1.98-.38-2.74-1.14-1.14-1.67-1.14-2.72c0-1.07.38-1.98,1.14-2.74.76-.76,1.67-1.14,2.74-1.14,1.07,0,1.98.38,2.74,1.14.76.76,1.14,1.67,1.14,2.74h0ZM192.84,113.23c0-1.54-.55-2.85-1.64-3.94-1.09-1.09-2.41-1.64-3.94-1.64s-2.85.55-3.94,1.64c-1.09,1.09-1.64,2.41-1.64,3.94,0,1.54.55,2.85,1.64,3.93,1.1,1.08,2.41,1.63,3.94,1.63,1.53,0,2.84-.54,3.94-1.63,1.09-1.08,1.64-2.39,1.64-3.93h0ZM180.34,110.15v-2.21c-.34-.15-.7-.22-1.07-.22-1.19,0-2.07.66-2.64,1.99l-.07.44v-2.21h-1.7v10.67h1.7v-5.34c0-.88.2-1.67.61-2.37.21-.36.47-.67.79-.92.32-.25.7-.38,1.14-.38s.86.18,1.25.53h0ZM168.96,119.95l3.83-17.83h-1.72s-2.57,11.98-2.57,11.98l-4.95-12.96-4.97,12.96-2.55-11.98h-1.75s3.86,17.83,3.86,17.83l5.41-14.36,5.41,14.36h0ZM146.52,113.03c0-1.47-.56-2.74-1.69-3.81-1.1-1.05-2.4-1.58-3.89-1.58s-2.85.55-3.94,1.64c-1.09,1.09-1.64,2.41-1.64,3.94s.55,2.85,1.64,3.93c.51.5,1.1.9,1.77,1.19.67.29,1.48.44,2.43.44s1.88-.29,2.79-.89c.91-.59,1.6-1.39,2.05-2.41h-1.94c-.37.5-.84.89-1.39,1.18-.56.28-1.14.42-1.76.42-.91,0-1.73-.3-2.47-.9-.73-.59-1.17-1.34-1.33-2.26h9.39v-.9h0ZM144.73,112.48h-7.57c.1-.45.27-.87.51-1.25.8-1.25,1.89-1.88,3.28-1.88.91,0,1.71.29,2.41.87.72.6,1.18,1.35,1.37,2.26h0ZM128.96,119.97l5.07-12.03h-1.89l-3.2,8.22-3.44-8.78-3.45,8.78-3.2-8.22h-1.89s5.12,12.03,5.12,12.03l3.42-8.61,3.47,8.61h0ZM416.83,87.03c0,1.05-.38,1.96-1.14,2.72-.76.76-1.67,1.14-2.74,1.14-1.07,0-1.98-.38-2.74-1.14-.76-.76-1.14-1.67-1.14-2.72,0-1.07.38-1.98,1.14-2.74.76-.76,1.67-1.14,2.74-1.14s1.98.38,2.74,1.14c.76.76,1.14,1.67,1.14,2.74h0ZM418.53,87.03c0-1.54-.55-2.85-1.64-3.94-1.09-1.09-2.41-1.64-3.94-1.64s-2.85.55-3.94,1.64c-1.09,1.09-1.64,2.41-1.64,3.94s.55,2.85,1.64,3.93c1.1,1.08,2.41,1.63,3.94,1.63s2.84-.54,3.94-1.63c1.09-1.08,1.64-2.39,1.64-3.93h0ZM402.76,87.07c0,1.04-.36,1.94-1.08,2.72-.72.78-1.62,1.16-2.68,1.16s-1.93-.39-2.67-1.16c-.73-.76-1.09-1.67-1.09-2.72s.36-1.95,1.09-2.72c.74-.78,1.63-1.16,2.67-1.16s1.96.39,2.68,1.16c.72.77,1.08,1.68,1.08,2.72h0ZM395.2,93.87h-1.73c.18,1.13.7,2.13,1.56,2.98,1.08,1.08,2.39,1.63,3.91,1.63s2.82-.54,3.91-1.63c1.08-1.08,1.63-2.39,1.63-3.91v-11.21h-1.7v1.79c-.08-.11-.17-.22-.28-.34-1.06-1.13-2.3-1.7-3.72-1.7s-2.74.57-3.75,1.7c-.98,1.1-1.47,2.39-1.47,3.88s.49,2.78,1.47,3.88c1.01,1.13,2.26,1.7,3.75,1.7s2.71-.57,3.72-1.7c.11-.11.2-.23.28-.34v2.32c0,1.05-.38,1.95-1.13,2.7-.75.75-1.65,1.13-2.71,1.13s-1.95-.38-2.7-1.13c-.53-.53-.87-1.12-1.02-1.78h0ZM391.33,86.83c0-1.47-.56-2.74-1.69-3.81-1.1-1.05-2.4-1.58-3.89-1.58s-2.85.55-3.94,1.64c-1.09,1.09-1.64,2.41-1.64,3.94,0,1.54.55,2.85,1.64,3.93.51.5,1.1.9,1.77,1.19.67.29,1.48.44,2.43.44s1.88-.3,2.79-.89c.91-.59,1.6-1.39,2.05-2.41h-1.94c-.37.5-.84.89-1.39,1.18-.56.28-1.14.42-1.76.42-.91,0-1.73-.3-2.47-.9-.73-.59-1.17-1.34-1.33-2.26h9.39v-.9h0ZM389.54,86.27h-7.57c.1-.45.27-.87.51-1.25.8-1.25,1.89-1.88,3.28-1.88.91,0,1.71.29,2.41.87.72.6,1.18,1.35,1.37,2.26h0ZM375.93,92.41h1.7s0-6.67,0-6.67c0-1.24-.32-2.24-.97-3-.32-.38-.72-.68-1.19-.9-.47-.22-1.08-.33-1.84-.33s-1.43.2-2.01.59c-.55.38-1,.86-1.36,1.46v-1.84h-1.7v10.67h1.7v-4.46c0-1.36.25-2.44.76-3.24.28-.44.65-.8,1.1-1.08.45-.27,1.04-.41,1.77-.41.73,0,1.25.25,1.56.74.32.49.47,1.09.47,1.78v6.67h0ZM355.94,92.41h10.55v-1.58h-7.3l6.99-9.1h-9.83v1.58s6.57,0,6.57,0l-6.99,9.1h0ZM354.85,85.57c-.34-1.21-.98-2.18-1.93-2.91-.99-.76-2.09-1.14-3.31-1.14-1.52,0-2.82.55-3.88,1.65-1.05,1.09-1.58,2.39-1.58,3.91s.53,2.81,1.58,3.92c.49.51,1.06.91,1.72,1.21.66.3,1.33.45,2.01.45.68,0,1.29-.09,1.82-.28,1.71-.59,2.87-1.75,3.47-3.46h-1.92c-.32.6-.77,1.08-1.35,1.43-.57.36-1.2.53-1.88.53-1.04,0-1.92-.38-2.63-1.13-.72-.76-1.08-1.65-1.08-2.68s.36-1.9,1.08-2.66c.33-.35.72-.62,1.18-.82.45-.2.99-.3,1.63-.3s1.25.21,1.87.63c.61.42,1.07.97,1.36,1.65h1.84ZM341.04,78.05c-.21-.21-.47-.31-.76-.31s-.55.11-.76.31c-.21.21-.32.47-.32.76s.11.55.32.76c.21.21.47.32.76.32.3,0,.55-.11.76-.32.21-.21.32-.46.32-.76,0-.3-.1-.55-.32-.76h0ZM341.14,92.41v-10.67h-1.7v10.67h1.7ZM334.35,92.36h1.7v-6.67c0-1.21-.3-2.2-.89-2.96-.3-.39-.67-.7-1.13-.93-.45-.23-1.05-.35-1.8-.35s-1.39.2-1.95.61c-.51.36-.92.84-1.25,1.42-.13-.27-.27-.52-.45-.74-.3-.39-.68-.7-1.13-.93-.45-.23-1.05-.35-1.8-.35-.74,0-1.4.2-1.95.61-.48.35-.88.79-1.2,1.34v-1.7h-1.7v10.67h1.7v-5.46c.09-.87.31-1.6.66-2.2.26-.45.61-.82,1.04-1.12.44-.29.91-.44,1.41-.44s.87.08,1.12.23c.7.44,1.04,1.21,1.04,2.32v6.67h1.7v-6.67c0-.14,0-.28-.01-.41.08-.21.17-.4.28-.59.26-.45.61-.82,1.04-1.12.44-.29.91-.44,1.41-.44s.87.08,1.12.23c.7.44,1.04,1.21,1.04,2.32v6.67h0ZM316.2,87.03c0,1.05-.38,1.96-1.14,2.72-.76.76-1.67,1.14-2.74,1.14s-1.98-.38-2.74-1.14c-.76-.76-1.14-1.67-1.14-2.72,0-1.07.38-1.98,1.14-2.74.76-.76,1.67-1.14,2.74-1.14,1.07,0,1.98.38,2.74,1.14.76.76,1.14,1.67,1.14,2.74h0ZM317.9,87.03c0-1.54-.55-2.85-1.64-3.94-1.09-1.09-2.41-1.64-3.94-1.64s-2.85.55-3.94,1.64c-1.09,1.09-1.64,2.41-1.64,3.94s.55,2.85,1.64,3.93c1.1,1.08,2.41,1.63,3.94,1.63s2.84-.54,3.94-1.63c1.09-1.08,1.64-2.39,1.64-3.93h0ZM302.49,92.41h1.7v-6.67c0-1.24-.32-2.24-.97-3-.32-.38-.72-.68-1.19-.9-.47-.22-1.08-.33-1.84-.33s-1.43.2-2.01.59c-.55.38-1,.86-1.36,1.46v-1.84h-1.7v10.67s1.7,0,1.7,0v-4.46c0-1.36.25-2.44.76-3.24.28-.44.65-.8,1.1-1.08.45-.27,1.04-.41,1.77-.41s1.25.25,1.56.74c.31.49.47,1.09.47,1.78v6.67h0ZM290.51,87.03c0,1.05-.38,1.96-1.14,2.72-.76.76-1.67,1.14-2.74,1.14s-1.98-.38-2.74-1.14c-.76-.76-1.14-1.67-1.14-2.72s.38-1.98,1.14-2.74c.76-.76,1.67-1.14,2.74-1.14,1.07,0,1.98.38,2.74,1.14.76.76,1.14,1.67,1.14,2.74h0ZM292.21,87.03c0-1.54-.55-2.85-1.64-3.94-1.09-1.09-2.41-1.64-3.94-1.64s-2.85.55-3.94,1.64c-1.09,1.09-1.64,2.41-1.64,3.94s.55,2.85,1.64,3.93c1.1,1.08,2.41,1.63,3.94,1.63s2.84-.54,3.94-1.63c1.09-1.08,1.64-2.39,1.64-3.93h0ZM273.26,92.41v-5.12s4.2,5.12,4.2,5.12h2.26l-4.68-5.51,4.39-5.19h-2.26l-3.91,4.8v-12.3h-1.7v18.2h1.7ZM267.92,92.41v-1.58h-8.1v-5.87h7.86v-1.6h-7.86v-5.87s8.1,0,8.1,0v-1.58h-9.8v16.5h9.8ZM246.6,90.58v1.83h1.7v-10.67h-1.7v4.46c0,1.48-.27,2.64-.83,3.48-.55.84-1.49,1.25-2.81,1.25-.73,0-1.25-.25-1.56-.74-.32-.49-.47-1.09-.47-1.78v-6.67h-1.7v6.67c0,1.24.34,2.25,1.01,3.04.67.79,1.61,1.18,2.8,1.18,1.58,0,2.77-.68,3.57-2.05h0ZM229.91,83.31h2.67v9.1h1.7v-9.1h2.64v-1.58h-2.64v-4.15h-1.7s0,4.15,0,4.15h-2.67v1.58h0ZM228.45,86.83c0-1.47-.56-2.74-1.69-3.81-1.1-1.05-2.4-1.58-3.89-1.58s-2.85.55-3.94,1.64c-1.09,1.09-1.64,2.41-1.64,3.94,0,1.54.55,2.85,1.64,3.93.51.5,1.1.9,1.77,1.19.67.29,1.48.44,2.43.44s1.88-.3,2.79-.89c.91-.59,1.6-1.39,2.05-2.41h-1.94c-.37.5-.84.89-1.39,1.18-.56.28-1.14.42-1.76.42-.91,0-1.73-.3-2.47-.9-.73-.59-1.17-1.34-1.33-2.26h9.39v-.9h0ZM226.65,86.27h-7.57c.1-.45.27-.87.51-1.25.8-1.25,1.89-1.88,3.28-1.88.91,0,1.71.29,2.41.87.72.6,1.18,1.35,1.37,2.26h0ZM208.7,83.31h2.67v9.1h1.7v-9.1h2.64v-1.58h-2.64v-4.15h-1.7v4.15h-2.67v1.58h0ZM201.08,98.48l7.38-16.74h-1.89l-3.06,7.16-3.42-7.16h-1.94s4.46,8.93,4.46,8.93l-3.59,7.81h2.06ZM191.52,90.89c-.43-.28-.74-.77-.92-1.46h-1.8c.37,2.2,1.79,3.3,4.27,3.3.58,0,1.12-.07,1.61-.21.5-.14.96-.34,1.37-.61.83-.55,1.24-1.39,1.24-2.55,0-1.15-.55-1.98-1.65-2.51-.47-.23-.98-.4-1.53-.52-.54-.12-1.05-.26-1.52-.4-.47-.15-.86-.33-1.18-.55-.32-.22-.48-.58-.48-1.06s.19-.84.58-1.07c.38-.23.83-.34,1.36-.34s.97.1,1.34.3c.37.19.65.59.83,1.18h1.82c-.23-1.08-.69-1.83-1.37-2.25-.69-.42-1.55-.64-2.58-.64s-1.92.28-2.67.82c-.74.55-1.12,1.35-1.12,2.41,0,.53.14.99.41,1.38.27.39.68.71,1.23.96.48.22.99.4,1.53.53.54.13,1.04.27,1.51.42,1.11.36,1.67.88,1.67,1.56,0,1.16-.78,1.74-2.33,1.74-.67,0-1.22-.14-1.65-.43h0ZM187.91,83.95v-2.21c-.34-.15-.7-.22-1.07-.22-1.19,0-2.07.66-2.64,1.99l-.07.44v-2.21h-1.7v10.67h1.7v-5.34c0-.88.2-1.67.61-2.37.21-.36.47-.67.79-.92.32-.25.7-.38,1.14-.38s.86.18,1.25.53h0ZM179.64,86.83c0-1.47-.56-2.74-1.69-3.81-1.1-1.05-2.4-1.58-3.89-1.58s-2.85.55-3.94,1.64c-1.09,1.09-1.64,2.41-1.64,3.94s.55,2.85,1.64,3.93c.51.5,1.1.9,1.77,1.19.67.29,1.48.44,2.43.44s1.88-.3,2.79-.89c.91-.59,1.6-1.39,2.05-2.41h-1.94c-.37.5-.84.89-1.39,1.18-.56.28-1.14.42-1.76.42-.91,0-1.73-.3-2.47-.9-.73-.59-1.17-1.34-1.33-2.26h9.39s0-.9,0-.9h0ZM177.84,86.27h-7.57c.1-.45.27-.87.51-1.25.8-1.25,1.89-1.88,3.28-1.88.91,0,1.71.29,2.41.87.72.6,1.18,1.35,1.37,2.26h0ZM162.07,93.77l5.07-12.03h-1.89l-3.2,8.22-3.45-8.78-3.45,8.78-3.2-8.22h-1.89l5.12,12.03,3.42-8.61,3.47,8.61h0ZM147.81,78.05c-.21-.21-.46-.31-.76-.31s-.55.11-.76.31c-.21.21-.31.47-.31.76s.11.55.31.76c.21.21.47.32.76.32s.55-.11.76-.32c.21-.21.32-.46.32-.76s-.11-.55-.32-.76h0ZM147.91,92.41v-10.67h-1.7v10.67h1.7ZM141.11,92.41h1.7v-6.67c0-1.24-.32-2.24-.97-3-.32-.38-.72-.68-1.19-.9-.47-.22-1.08-.33-1.84-.33s-1.43.2-2.01.59c-.55.38-1,.86-1.36,1.46v-1.84h-1.7v10.67h1.7v-4.46c0-1.36.25-2.44.76-3.24.28-.44.65-.8,1.1-1.08.45-.27,1.04-.41,1.77-.41s1.25.25,1.56.74c.32.49.47,1.09.47,1.78v6.67Z"/>
    <path class="st0" d="M131.55,51.45c-1.19-.46-2.66-.91-4.42-1.33h0c-2.86-.66-5.01-1.62-6.46-2.86-1.49-1.28-2.23-2.85-2.22-4.71h0c0-1.34.24-2.52.71-3.54.48-1.02,1.2-1.87,2.15-2.55.94-.66,1.95-1.16,3.05-1.49,1.1-.33,2.27-.5,3.53-.5,2.74,0,4.93.52,6.58,1.55,1.67,1.05,2.77,2.62,3.29,4.71l.11.45h-3.82l-.07-.28c-.25-1.08-.86-1.89-1.85-2.43-1.02-.56-2.44-.84-4.26-.84-1.28,0-2.36.19-3.24.56-.86.37-1.54.91-2.03,1.64h0c-.18.26-.31.55-.4.89-.09.34-.14.72-.13,1.13h0c0,.77.2,1.45.62,2.04.42.6,1.07,1.12,1.93,1.56h0c.42.22,1.07.48,1.96.77.91.29,2.06.62,3.46.99h0c1.41.36,2.64.75,3.67,1.16,1.04.42,1.89.85,2.54,1.32h0c.93.65,1.63,1.44,2.09,2.37.46.92.7,1.98.7,3.16,0,1.44-.29,2.71-.87,3.81-.58,1.1-1.44,2.02-2.58,2.76h0c-.95.62-2.01,1.09-3.18,1.4-1.17.31-2.44.46-3.82.46-3.11,0-5.58-.6-7.41-1.8-1.85-1.21-3.03-3.03-3.53-5.44l-.09-.44h4.1l.05.3c.24,1.35.92,2.36,2.03,3.03,1.15.69,2.77,1.04,4.86,1.04,1.49,0,2.75-.2,3.78-.61,1.01-.4,1.8-1,2.36-1.79h0c.21-.3.37-.65.48-1.06h0c.11-.42.16-.9.16-1.44s-.1-.99-.3-1.4h0c-.2-.42-.5-.79-.89-1.11-.61-.49-1.5-.97-2.68-1.43h0ZM267.23,44.95v17.77h0v.38h-.56c-.96.78-1.4,1.49-1.49,2.09-.05.36.03.69.19.96.17.29.43.54.74.73.62.38,1.41.52,2.04.33l.52-.15-.06.54-.15,1.4-.03.24-.23.07c-1.35.42-2.67.3-3.69-.18-.65-.3-1.19-.76-1.56-1.32-.37-.57-.56-1.24-.52-1.99.05-.87.43-1.84,1.23-2.82v-2.32c-.84.91-1.77,1.6-2.8,2.07-1.08.49-2.27.74-3.55.74s-2.46-.25-3.55-.74c-1.08-.49-2.06-1.23-2.93-2.21-.84-.95-1.48-1.98-1.9-3.11-.42-1.12-.64-2.32-.64-3.6s.21-2.48.64-3.6c.42-1.12,1.06-2.16,1.9-3.11.87-.98,1.85-1.72,2.93-2.21,1.08-.49,2.27-.74,3.55-.74s2.46.25,3.55.74c1.03.47,1.96,1.16,2.8,2.07v-2.4h3.56v.36h0ZM154.87,58.12c1.13-1.22,1.7-2.64,1.7-4.28,0-.82-.14-1.59-.42-2.3-.28-.71-.71-1.37-1.28-1.98-.57-.61-1.2-1.07-1.9-1.37-.7-.3-1.46-.45-2.3-.45s-1.6.15-2.3.45c-.7.3-1.33.76-1.9,1.37-.57.61-1,1.27-1.28,1.98-.28.71-.42,1.47-.42,2.3s.14,1.59.42,2.3c.28.71.71,1.37,1.28,1.98.57.61,1.2,1.07,1.9,1.37h0c.7.3,1.46.45,2.3.45s1.6-.15,2.3-.45c.7-.3,1.33-.76,1.9-1.37h0ZM160.13,44.95v17.77s0,.36,0,.36h-.54l-.02.02h-3v-2.4c-.84.91-1.77,1.6-2.8,2.07-1.08.49-2.27.74-3.55.74s-2.46-.25-3.55-.74c-1.08-.49-2.06-1.23-2.93-2.21-.84-.95-1.48-1.99-1.9-3.11-.42-1.12-.64-2.32-.64-3.61s.21-2.48.64-3.61c.42-1.12,1.06-2.16,1.9-3.11.87-.98,1.85-1.72,2.93-2.21,1.08-.49,2.27-.74,3.55-.74s2.46.25,3.55.74c1.03.47,1.96,1.16,2.8,2.07v-2.4h3.56v.36h0ZM191.22,63.02h-3.19v-11.48c0-.87-.13-1.6-.4-2.2-.26-.58-.65-1.03-1.17-1.36-.17-.11-.38-.19-.65-.24-.28-.06-.62-.09-1.02-.09s-.75.06-1.11.16c-.36.11-.7.28-1.04.5h0c-.34.23-.65.49-.92.77h0c-.27.29-.51.61-.71.96h0c-.08.14-.16.29-.23.45-.06.13-.12.27-.18.41,0,.08,0,.17.01.27,0,.15,0,.27,0,.36v11.48h-3.56v-11.48c0-.87-.13-1.6-.4-2.2-.26-.58-.65-1.03-1.17-1.36h0c-.17-.11-.38-.19-.65-.24-.28-.06-.62-.09-1.02-.09s-.75.06-1.11.16c-.36.11-.7.28-1.04.5h0c-.34.23-.65.49-.91.77h0c-.27.29-.5.61-.71.96h0c-.28.48-.5,1.02-.67,1.6-.17.58-.3,1.22-.37,1.9v9.46h-3.56v-18.52h3.56v2.03c.09-.11.17-.21.26-.31.35-.39.74-.74,1.16-1.04h0c.5-.36,1.04-.63,1.62-.81.58-.18,1.2-.27,1.85-.27,1.3,0,2.35.21,3.16.63.4.21.77.45,1.1.72.33.28.63.59.9.93h0c.15.2.29.41.42.62l.06.1c.2-.29.41-.57.63-.83.36-.41.77-.78,1.21-1.1h0c.5-.36,1.04-.63,1.62-.81.58-.18,1.2-.27,1.85-.27s1.22.05,1.75.15c.53.1,1,.26,1.41.47.4.21.77.45,1.1.72.33.28.63.59.9.93.52.67.91,1.44,1.17,2.31.26.86.38,1.81.38,2.85v11.48h-.36ZM210.43,56.07c.3-.71.45-1.48.45-2.3s-.15-1.62-.45-2.34c-.3-.72-.75-1.38-1.35-1.98h0c-.6-.6-1.26-1.05-1.97-1.35-.72-.3-1.49-.45-2.34-.45s-1.62.15-2.34.45c-.72.3-1.38.75-1.97,1.35-.6.6-1.05,1.26-1.35,1.98-.3.72-.45,1.49-.45,2.34s.15,1.6.45,2.3c.3.71.75,1.37,1.35,1.97.6.6,1.26,1.05,1.97,1.35.72.3,1.49.45,2.34.45s1.62-.15,2.34-.45c.72-.3,1.37-.75,1.97-1.35h0c.6-.6,1.05-1.25,1.35-1.97h0ZM211.59,46.93h0c1.89,1.89,2.84,4.17,2.84,6.83,0,1.33-.24,2.57-.71,3.71-.47,1.14-1.18,2.17-2.13,3.1-.95.94-1.99,1.64-3.13,2.11-1.14.47-2.37.71-3.69.71s-2.55-.24-3.69-.71c-1.14-.47-2.18-1.17-3.13-2.11-.94-.93-1.65-1.97-2.13-3.1-.47-1.14-.71-2.37-.71-3.71s.24-2.56.71-3.7c.47-1.14,1.18-2.18,2.13-3.12h0c1.89-1.89,4.17-2.84,6.83-2.84,1.33,0,2.56.24,3.7.71,1.14.47,2.18,1.18,3.12,2.13h0ZM228.42,44.95v4.5l-.61-.55c-.3-.27-.6-.47-.91-.6-.3-.13-.61-.19-.93-.19s-.63.05-.91.14c-.28.09-.53.23-.76.41-.24.19-.47.41-.67.65-.2.24-.39.5-.55.79-.64,1.11-.96,2.36-.96,3.76v9.26h-3.56v-18.52h3.56v2.06c.39-.63.84-1.13,1.35-1.52.8-.6,1.74-.9,2.81-.9.33,0,.66.03.98.1.32.07.64.16.94.29l.22.1v.24h0ZM246.45,63.1h.36v-3.36h-11.8l11.19-14.58.45-.59h-17.48v3.36h10.58l-11.2,14.58-.45.59h18.33ZM263.25,56.14c.28-.71.42-1.48.42-2.3s-.14-1.59-.42-2.3c-.28-.71-.71-1.37-1.28-1.98-.57-.61-1.2-1.07-1.9-1.37-.7-.3-1.46-.45-2.3-.45s-1.6.15-2.3.45c-.7.3-1.33.76-1.9,1.37-1.13,1.22-1.7,2.64-1.7,4.28,0,.82.14,1.59.42,2.3.28.71.71,1.37,1.28,1.98.57.61,1.2,1.07,1.9,1.37h0c.7.3,1.46.45,2.3.45s1.6-.15,2.3-.45c.7-.3,1.33-.76,1.9-1.37.57-.61,1-1.27,1.28-1.98h0ZM286.3,56.14c.28-.71.42-1.48.42-2.3s-.14-1.59-.42-2.3c-.28-.71-.71-1.37-1.28-1.98-.57-.61-1.2-1.07-1.9-1.37-.7-.3-1.46-.45-2.3-.45s-1.6.15-2.3.45c-.7.3-1.33.76-1.9,1.37-1.13,1.22-1.7,2.64-1.7,4.28,0,.82.14,1.59.42,2.3.28.71.71,1.37,1.28,1.98.57.61,1.2,1.07,1.9,1.37.7.3,1.46.45,2.3.45s1.6-.15,2.3-.45c.7-.3,1.33-.76,1.9-1.37.57-.61,1-1.27,1.28-1.98h0ZM290.28,32.41v30.69h-3.56v-2.4c-.84.91-1.77,1.6-2.8,2.07-1.08.49-2.27.74-3.55.74s-2.46-.25-3.55-.74c-1.08-.49-2.06-1.23-2.93-2.21-.84-.95-1.48-1.99-1.9-3.11-.42-1.12-.64-2.32-.64-3.61s.21-2.48.64-3.61c.42-1.12,1.06-2.16,1.9-3.11.87-.98,1.85-1.72,2.93-2.21,1.08-.49,2.27-.74,3.55-.74s2.46.25,3.55.74c1.03.47,1.96,1.16,2.8,2.07v-14.94h3.56v.36h0ZM318.87,51.45c-1.19-.46-2.66-.91-4.42-1.33h0c-2.86-.66-5.01-1.62-6.46-2.86-1.49-1.28-2.23-2.85-2.22-4.71h0c0-1.34.24-2.52.71-3.54.48-1.02,1.2-1.87,2.15-2.55.94-.66,1.96-1.16,3.05-1.49,1.1-.33,2.27-.5,3.53-.5,2.74,0,4.93.52,6.58,1.55,1.67,1.05,2.77,2.62,3.29,4.71l.11.45h-3.82l-.07-.28c-.25-1.08-.86-1.89-1.85-2.43-1.02-.56-2.44-.84-4.26-.84-1.28,0-2.36.19-3.24.56-.86.37-1.54.91-2.03,1.64h0c-.18.26-.31.55-.4.89-.09.34-.14.72-.13,1.13h0c0,.77.2,1.45.62,2.04.42.6,1.07,1.12,1.93,1.56h0c.42.22,1.07.48,1.96.77.91.29,2.06.62,3.46.99h0c1.41.36,2.64.75,3.67,1.16,1.04.42,1.89.85,2.54,1.32h0c.93.65,1.63,1.44,2.09,2.37.46.92.7,1.98.7,3.16,0,1.44-.29,2.71-.87,3.81-.58,1.1-1.44,2.02-2.58,2.76h0c-.95.62-2.01,1.09-3.18,1.4-1.17.31-2.44.46-3.82.46-3.11,0-5.58-.6-7.41-1.8-1.85-1.21-3.03-3.03-3.53-5.44l-.09-.44h4.1l.05.3c.24,1.35.92,2.36,2.03,3.03,1.15.69,2.77,1.04,4.86,1.04,1.49,0,2.75-.2,3.78-.61,1.01-.4,1.8-1,2.37-1.79h0c.21-.3.37-.65.48-1.06.11-.42.17-.9.17-1.44s-.1-.99-.3-1.4h0c-.2-.42-.5-.79-.9-1.11-.61-.49-1.5-.97-2.68-1.43h0ZM331.97,47.94h-4.45v-3.36h4.45v-6.91h3.56v6.91h4.41v3.36h-4.41v15.16h-3.56v-15.16h0ZM355.34,62.74v-1.87c-.56.71-1.21,1.28-1.94,1.7-1.05.6-2.26.9-3.64.9-1.04,0-1.98-.18-2.8-.52-.83-.35-1.55-.88-2.14-1.58h0c-.59-.69-1.03-1.48-1.33-2.37-.29-.88-.44-1.86-.44-2.92v-11.48h3.56v11.48c0,.55.06,1.06.18,1.52.12.46.3.88.55,1.26.45.71,1.22,1.06,2.3,1.06s1.95-.16,2.68-.49c.72-.32,1.29-.8,1.71-1.44.43-.66.76-1.45.98-2.37.22-.94.33-2.01.33-3.22v-7.8h3.56v18.52h-3.56v-.36h0ZM377.35,56.14c.28-.71.42-1.48.42-2.3s-.14-1.59-.42-2.3c-.28-.71-.71-1.37-1.28-1.98-.57-.61-1.2-1.07-1.9-1.37-.7-.3-1.46-.45-2.3-.45s-1.6.15-2.3.45h0c-.7.3-1.33.76-1.9,1.37-.57.61-1,1.27-1.28,1.98-.28.71-.42,1.47-.42,2.3s.14,1.59.42,2.3c.28.71.71,1.37,1.28,1.98.57.61,1.2,1.07,1.9,1.37.7.3,1.46.45,2.3.45s1.6-.15,2.3-.45c.7-.3,1.33-.76,1.9-1.37.57-.61,1-1.27,1.28-1.98h0ZM381.34,32.41v30.69h-3.56v-2.4c-.84.91-1.77,1.6-2.8,2.07-1.08.49-2.27.74-3.55.74s-2.46-.25-3.55-.74c-1.08-.49-2.06-1.23-2.93-2.21-1.69-1.9-2.54-4.14-2.54-6.71,0-1.28.21-2.48.64-3.61.42-1.12,1.06-2.16,1.9-3.11.87-.98,1.85-1.72,2.93-2.21,1.08-.49,2.27-.74,3.55-.74s2.46.25,3.55.74c1.03.47,1.96,1.16,2.8,2.07v-14.94h3.56v.36h0ZM404.05,49.87c.49,1.11.73,2.3.73,3.57v1.86h-15.56c.14.56.34,1.07.62,1.54.35.59.81,1.11,1.38,1.57,1.17.94,2.47,1.41,3.9,1.41.49,0,.96-.06,1.42-.17.46-.11.91-.28,1.35-.5.44-.22.84-.49,1.21-.8h0c.37-.31.7-.66.99-1.06l.11-.15h3.98l-.23.51c-.39.88-.88,1.67-1.47,2.37-.59.7-1.29,1.3-2.08,1.81-.79.51-1.59.89-2.39,1.15h0c-.81.26-1.63.39-2.45.39s-1.56-.06-2.26-.19c-.7-.13-1.34-.32-1.93-.57-.58-.25-1.13-.55-1.63-.89-.51-.34-.99-.73-1.43-1.16-.94-.93-1.65-1.97-2.13-3.1-.47-1.14-.71-2.37-.71-3.71s.24-2.56.71-3.7c.47-1.14,1.18-2.18,2.13-3.12h0c1.89-1.89,4.17-2.84,6.83-2.84,1.29,0,2.5.23,3.62.68,1.12.45,2.16,1.14,3.12,2.04.97.93,1.7,1.94,2.19,3.04h0ZM389.28,52.14h11.68c-.16-.55-.37-1.05-.66-1.52-.36-.59-.82-1.12-1.39-1.6h0c-.55-.46-1.15-.8-1.78-1.03-.63-.23-1.3-.34-2.01-.34-1.09,0-2.06.25-2.91.73-.86.49-1.61,1.24-2.24,2.23-.19.3-.35.61-.49.94h0c-.08.19-.15.39-.2.59h0ZM424.19,63.1h-3.19v-11.48c0-.55-.06-1.06-.18-1.52-.12-.46-.3-.88-.55-1.26-.22-.35-.52-.61-.9-.79-.38-.18-.85-.27-1.41-.27-.58,0-1.1.05-1.57.16h0c-.45.11-.85.26-1.2.47-.35.21-.67.46-.96.74-.29.28-.54.6-.76.94-.4.63-.7,1.38-.91,2.24-.21.87-.31,1.86-.31,2.96v7.8h-3.56v-18.52h3.56v2.26c.12-.15.25-.3.38-.44.4-.42.83-.8,1.31-1.13.52-.35,1.07-.62,1.67-.79.59-.18,1.23-.26,1.89-.26s1.25.05,1.78.14c.54.1,1.03.24,1.45.44h0c.42.19.8.42,1.15.69.35.26.67.57.96.9h0c1.14,1.34,1.71,3.08,1.71,5.23v11.48h-.36ZM431.51,47.94h-4.45v-3.36h4.45v-6.91h3.56v6.91h4.41v3.36h-4.41v15.16h-3.56v-15.16h0ZM456.7,56.07c.3-.71.45-1.48.45-2.3s-.15-1.62-.45-2.34c-.3-.72-.75-1.37-1.35-1.97-.6-.6-1.26-1.05-1.97-1.35-.72-.3-1.49-.45-2.34-.45s-1.62.15-2.34.45c-.72.3-1.38.75-1.98,1.35-.6.6-1.05,1.26-1.35,1.98-.3.72-.45,1.49-.45,2.34s.15,1.6.45,2.3c.3.71.75,1.37,1.35,1.97.6.6,1.26,1.05,1.97,1.35.72.3,1.49.45,2.34.45s1.62-.15,2.34-.45c.72-.3,1.37-.75,1.97-1.35.6-.6,1.05-1.26,1.35-1.97h0ZM459.99,50.06c.47,1.14.71,2.38.71,3.7s-.24,2.57-.71,3.71c-.47,1.14-1.18,2.17-2.13,3.1-.95.94-1.99,1.64-3.13,2.11-1.14.47-2.37.71-3.69.71s-2.55-.24-3.69-.71c-1.14-.47-2.18-1.17-3.13-2.11-1.89-1.86-2.84-4.13-2.84-6.81,0-1.33.24-2.56.71-3.7.47-1.14,1.18-2.18,2.13-3.12h0c1.89-1.89,4.17-2.84,6.83-2.84s4.94.95,6.83,2.84c.94.94,1.65,1.98,2.12,3.13h0ZM453.34,34.84h4.22l-.45.59-4.45,5.78-.11.14h-3.06l.3-.54,3.23-5.78.11-.19h.21ZM491.36,45.09l-8.45,20.05-.34.81-.33-.82-5.44-13.51-5.37,13.51-.33.82-.35-.81-8.53-20.05-.22-.51h3.95l.09.23,5,12.84,5.4-13.77.34-.86.34.86,5.4,13.77,5-12.84.09-.23h3.95l-.21.51Z"/>
    <path class="st0" d="M131.55,51.45c-1.19-.46-2.66-.91-4.42-1.33h0c-2.86-.66-5.01-1.62-6.46-2.86-1.49-1.28-2.23-2.85-2.22-4.71h0c0-1.34.24-2.52.71-3.54.48-1.02,1.2-1.87,2.15-2.55.94-.66,1.95-1.16,3.05-1.49,1.1-.33,2.27-.5,3.53-.5,2.74,0,4.93.52,6.58,1.55,1.67,1.05,2.77,2.62,3.29,4.71l.11.45h-3.82l-.07-.28c-.25-1.08-.86-1.89-1.85-2.43-1.02-.56-2.44-.84-4.26-.84-1.28,0-2.36.19-3.24.56-.86.37-1.54.91-2.03,1.64h0c-.18.26-.31.55-.4.89-.09.34-.14.72-.13,1.13h0c0,.77.2,1.45.62,2.04.42.6,1.07,1.12,1.93,1.56h0c.42.22,1.07.48,1.96.77.91.29,2.06.62,3.46.99h0c1.41.36,2.64.75,3.67,1.16,1.04.42,1.89.85,2.54,1.32h0c.93.65,1.63,1.44,2.09,2.37.46.92.7,1.98.7,3.16,0,1.44-.29,2.71-.87,3.81-.58,1.1-1.44,2.02-2.58,2.76h0c-.95.62-2.01,1.09-3.18,1.4-1.17.31-2.44.46-3.82.46-3.11,0-5.58-.6-7.41-1.8-1.85-1.21-3.03-3.03-3.53-5.44l-.09-.44h4.1l.05.3c.24,1.35.92,2.36,2.03,3.03,1.15.69,2.77,1.04,4.86,1.04,1.49,0,2.75-.2,3.78-.61,1.01-.4,1.8-1,2.36-1.79h0c.21-.3.37-.65.48-1.06h0c.11-.42.16-.9.16-1.44s-.1-.99-.3-1.4h0c-.2-.42-.5-.79-.89-1.11-.61-.49-1.5-.97-2.68-1.43h0ZM267.23,44.95v17.77h0v.38h-.56c-.96.78-1.4,1.49-1.49,2.09-.05.36.03.69.19.96.17.29.43.54.74.73.62.38,1.41.52,2.04.33l.52-.15-.06.54-.15,1.4-.03.24-.23.07c-1.35.42-2.67.3-3.69-.18-.65-.3-1.19-.76-1.56-1.32-.37-.57-.56-1.24-.52-1.99.05-.87.43-1.84,1.23-2.82v-2.32c-.84.91-1.77,1.6-2.8,2.07-1.08.49-2.27.74-3.55.74s-2.46-.25-3.55-.74c-1.08-.49-2.06-1.23-2.93-2.21-.84-.95-1.48-1.98-1.9-3.11-.42-1.12-.64-2.32-.64-3.6s.21-2.48.64-3.6c.42-1.12,1.06-2.16,1.9-3.11.87-.98,1.85-1.72,2.93-2.21,1.08-.49,2.27-.74,3.55-.74s2.46.25,3.55.74c1.03.47,1.96,1.16,2.8,2.07v-2.4h3.56v.36h0ZM154.87,58.12c1.13-1.22,1.7-2.64,1.7-4.28,0-.82-.14-1.59-.42-2.3-.28-.71-.71-1.37-1.28-1.98-.57-.61-1.2-1.07-1.9-1.37-.7-.3-1.46-.45-2.3-.45s-1.6.15-2.3.45c-.7.3-1.33.76-1.9,1.37-.57.61-1,1.27-1.28,1.98-.28.71-.42,1.47-.42,2.3s.14,1.59.42,2.3c.28.71.71,1.37,1.28,1.98.57.61,1.2,1.07,1.9,1.37h0c.7.3,1.46.45,2.3.45s1.6-.15,2.3-.45c.7-.3,1.33-.76,1.9-1.37h0ZM160.13,44.95v17.77s0,.36,0,.36h-.54l-.02.02h-3v-2.4c-.84.91-1.77,1.6-2.8,2.07-1.08.49-2.27.74-3.55.74s-2.46-.25-3.55-.74c-1.08-.49-2.06-1.23-2.93-2.21-.84-.95-1.48-1.99-1.9-3.11-.42-1.12-.64-2.32-.64-3.61s.21-2.48.64-3.61c.42-1.12,1.06-2.16,1.9-3.11.87-.98,1.85-1.72,2.93-2.21,1.08-.49,2.27-.74,3.55-.74s2.46.25,3.55.74c1.03.47,1.96,1.16,2.8,2.07v-2.4h3.56v.36h0ZM191.22,63.02h-3.19v-11.48c0-.87-.13-1.6-.4-2.2-.26-.58-.65-1.03-1.17-1.36-.17-.11-.38-.19-.65-.24-.28-.06-.62-.09-1.02-.09s-.75.06-1.11.16c-.36.11-.7.28-1.04.5h0c-.34.23-.65.49-.92.77h0c-.27.29-.51.61-.71.96h0c-.08.14-.16.29-.23.45-.06.13-.12.27-.18.41,0,.08,0,.17.01.27,0,.15,0,.27,0,.36v11.48h-3.56v-11.48c0-.87-.13-1.6-.4-2.2-.26-.58-.65-1.03-1.17-1.36h0c-.17-.11-.38-.19-.65-.24-.28-.06-.62-.09-1.02-.09s-.75.06-1.11.16c-.36.11-.7.28-1.04.5h0c-.34.23-.65.49-.91.77h0c-.27.29-.5.61-.71.96h0c-.28.48-.5,1.02-.67,1.6-.17.58-.3,1.22-.37,1.9v9.46h-3.56v-18.52h3.56v2.03c.09-.11.17-.21.26-.31.35-.39.74-.74,1.16-1.04h0c.5-.36,1.04-.63,1.62-.81.58-.18,1.2-.27,1.85-.27,1.3,0,2.35.21,3.16.63.4.21.77.45,1.1.72.33.28.63.59.9.93h0c.15.2.29.41.42.62l.06.1c.2-.29.41-.57.63-.83.36-.41.77-.78,1.21-1.1h0c.5-.36,1.04-.63,1.62-.81.58-.18,1.2-.27,1.85-.27s1.22.05,1.75.15c.53.1,1,.26,1.41.47.4.21.77.45,1.1.72.33.28.63.59.9.93.52.67.91,1.44,1.17,2.31.26.86.38,1.81.38,2.85v11.48h-.36ZM210.43,56.07c.3-.71.45-1.48.45-2.3s-.15-1.62-.45-2.34c-.3-.72-.75-1.38-1.35-1.98h0c-.6-.6-1.26-1.05-1.97-1.35-.72-.3-1.49-.45-2.34-.45s-1.62.15-2.34.45c-.72.3-1.38.75-1.97,1.35-.6.6-1.05,1.26-1.35,1.98-.3.72-.45,1.49-.45,2.34s.15,1.6.45,2.3c.3.71.75,1.37,1.35,1.97.6.6,1.26,1.05,1.97,1.35.72.3,1.49.45,2.34.45s1.62-.15,2.34-.45c.72-.3,1.37-.75,1.97-1.35h0c.6-.6,1.05-1.25,1.35-1.97h0ZM211.59,46.93h0c1.89,1.89,2.84,4.17,2.84,6.83,0,1.33-.24,2.57-.71,3.71-.47,1.14-1.18,2.17-2.13,3.1-.95.94-1.99,1.64-3.13,2.11-1.14.47-2.37.71-3.69.71s-2.55-.24-3.69-.71c-1.14-.47-2.18-1.17-3.13-2.11-.94-.93-1.65-1.97-2.13-3.1-.47-1.14-.71-2.37-.71-3.71s.24-2.56.71-3.7c.47-1.14,1.18-2.18,2.13-3.12h0c1.89-1.89,4.17-2.84,6.83-2.84,1.33,0,2.56.24,3.7.71,1.14.47,2.18,1.18,3.12,2.13h0ZM228.42,44.95v4.5l-.61-.55c-.3-.27-.6-.47-.91-.6-.3-.13-.61-.19-.93-.19s-.63.05-.91.14c-.28.09-.53.23-.76.41-.24.19-.47.41-.67.65-.2.24-.39.5-.55.79-.64,1.11-.96,2.36-.96,3.76v9.26h-3.56v-18.52h3.56v2.06c.39-.63.84-1.13,1.35-1.52.8-.6,1.74-.9,2.81-.9.33,0,.66.03.98.1.32.07.64.16.94.29l.22.1v.24h0ZM246.45,63.1h.36v-3.36h-11.8l11.19-14.58.45-.59h-17.48v3.36h10.58l-11.2,14.58-.45.59h18.33ZM263.25,56.14c.28-.71.42-1.48.42-2.3s-.14-1.59-.42-2.3c-.28-.71-.71-1.37-1.28-1.98-.57-.61-1.2-1.07-1.9-1.37-.7-.3-1.46-.45-2.3-.45s-1.6.15-2.3.45c-.7.3-1.33.76-1.9,1.37-1.13,1.22-1.7,2.64-1.7,4.28,0,.82.14,1.59.42,2.3.28.71.71,1.37,1.28,1.98.57.61,1.2,1.07,1.9,1.37h0c.7.3,1.46.45,2.3.45s1.6-.15,2.3-.45c.7-.3,1.33-.76,1.9-1.37.57-.61,1-1.27,1.28-1.98h0ZM286.3,56.14c.28-.71.42-1.48.42-2.3s-.14-1.59-.42-2.3c-.28-.71-.71-1.37-1.28-1.98-.57-.61-1.2-1.07-1.9-1.37-.7-.3-1.46-.45-2.3-.45s-1.6.15-2.3.45c-.7.3-1.33.76-1.9,1.37-1.13,1.22-1.7,2.64-1.7,4.28,0,.82.14,1.59.42,2.3.28.71.71,1.37,1.28,1.98.57.61,1.2,1.07,1.9,1.37.7.3,1.46.45,2.3.45s1.6-.15,2.3-.45c.7-.3,1.33-.76,1.9-1.37.57-.61,1-1.27,1.28-1.98h0ZM290.28,32.41v30.69h-3.56v-2.4c-.84.91-1.77,1.6-2.8,2.07-1.08.49-2.27.74-3.55.74s-2.46-.25-3.55-.74c-1.08-.49-2.06-1.23-2.93-2.21-.84-.95-1.48-1.99-1.9-3.11-.42-1.12-.64-2.32-.64-3.61s.21-2.48.64-3.61c.42-1.12,1.06-2.16,1.9-3.11.87-.98,1.85-1.72,2.93-2.21,1.08-.49,2.27-.74,3.55-.74s2.46.25,3.55.74c1.03.47,1.96,1.16,2.8,2.07v-14.94h3.56v.36h0ZM318.87,51.45c-1.19-.46-2.66-.91-4.42-1.33h0c-2.86-.66-5.01-1.62-6.46-2.86-1.49-1.28-2.23-2.85-2.22-4.71h0c0-1.34.24-2.52.71-3.54.48-1.02,1.2-1.87,2.15-2.55.94-.66,1.96-1.16,3.05-1.49,1.1-.33,2.27-.5,3.53-.5,2.74,0,4.93.52,6.58,1.55,1.67,1.05,2.77,2.62,3.29,4.71l.11.45h-3.82l-.07-.28c-.25-1.08-.86-1.89-1.85-2.43-1.02-.56-2.44-.84-4.26-.84-1.28,0-2.36.19-3.24.56-.86.37-1.54.91-2.03,1.64h0c-.18.26-.31.55-.4.89-.09.34-.14.72-.13,1.13h0c0,.77.2,1.45.62,2.04.42.6,1.07,1.12,1.93,1.56h0c.42.22,1.07.48,1.96.77.91.29,2.06.62,3.46.99h0c1.41.36,2.64.75,3.67,1.16,1.04.42,1.89.85,2.54,1.32h0c.93.65,1.63,1.44,2.09,2.37.46.92.7,1.98.7,3.16,0,1.44-.29,2.71-.87,3.81-.58,1.1-1.44,2.02-2.58,2.76h0c-.95.62-2.01,1.09-3.18,1.4-1.17.31-2.44.46-3.82.46-3.11,0-5.58-.6-7.41-1.8-1.85-1.21-3.03-3.03-3.53-5.44l-.09-.44h4.1l.05.3c.24,1.35.92,2.36,2.03,3.03,1.15.69,2.77,1.04,4.86,1.04,1.49,0,2.75-.2,3.78-.61,1.01-.4,1.8-1,2.37-1.79h0c.21-.3.37-.65.48-1.06.11-.42.17-.9.17-1.44s-.1-.99-.3-1.4h0c-.2-.42-.5-.79-.9-1.11-.61-.49-1.5-.97-2.68-1.43h0ZM331.97,47.94h-4.45v-3.36h4.45v-6.91h3.56v6.91h4.41v3.36h-4.41v15.16h-3.56v-15.16h0ZM355.34,62.74v-1.87c-.56.71-1.21,1.28-1.94,1.7-1.05.6-2.26.9-3.64.9-1.04,0-1.98-.18-2.8-.52-.83-.35-1.55-.88-2.14-1.58h0c-.59-.69-1.03-1.48-1.33-2.37-.29-.88-.44-1.86-.44-2.92v-11.48h3.56v11.48c0,.55.06,1.06.18,1.52.12.46.3.88.55,1.26.45.71,1.22,1.06,2.3,1.06s1.95-.16,2.68-.49c.72-.32,1.29-.8,1.71-1.44.43-.66.76-1.45.98-2.37.22-.94.33-2.01.33-3.22v-7.8h3.56v18.52h-3.56v-.36h0ZM377.35,56.14c.28-.71.42-1.48.42-2.3s-.14-1.59-.42-2.3c-.28-.71-.71-1.37-1.28-1.98-.57-.61-1.2-1.07-1.9-1.37-.7-.3-1.46-.45-2.3-.45s-1.6.15-2.3.45h0c-.7.3-1.33.76-1.9,1.37-.57.61-1,1.27-1.28,1.98-.28.71-.42,1.47-.42,2.3s.14,1.59.42,2.3c.28.71.71,1.37,1.28,1.98.57.61,1.2,1.07,1.9,1.37.7.3,1.46.45,2.3.45s1.6-.15,2.3-.45c.7-.3,1.33-.76,1.9-1.37.57-.61,1-1.27,1.28-1.98h0ZM381.34,32.41v30.69h-3.56v-2.4c-.84.91-1.77,1.6-2.8,2.07-1.08.49-2.27.74-3.55.74s-2.46-.25-3.55-.74c-1.08-.49-2.06-1.23-2.93-2.21-1.69-1.9-2.54-4.14-2.54-6.71,0-1.28.21-2.48.64-3.61.42-1.12,1.06-2.16,1.9-3.11.87-.98,1.85-1.72,2.93-2.21,1.08-.49,2.27-.74,3.55-.74s2.46.25,3.55.74c1.03.47,1.96,1.16,2.8,2.07v-14.94h3.56v.36h0ZM404.05,49.87c.49,1.11.73,2.3.73,3.57v1.86h-15.56c.14.56.34,1.07.62,1.54.35.59.81,1.11,1.38,1.57,1.17.94,2.47,1.41,3.9,1.41.49,0,.96-.06,1.42-.17.46-.11.91-.28,1.35-.5.44-.22.84-.49,1.21-.8h0c.37-.31.7-.66.99-1.06l.11-.15h3.98l-.23.51c-.39.88-.88,1.67-1.47,2.37-.59.7-1.29,1.3-2.08,1.81-.79.51-1.59.89-2.39,1.15h0c-.81.26-1.63.39-2.45.39s-1.56-.06-2.26-.19c-.7-.13-1.34-.32-1.93-.57-.58-.25-1.13-.55-1.63-.89-.51-.34-.99-.73-1.43-1.16-.94-.93-1.65-1.97-2.13-3.1-.47-1.14-.71-2.37-.71-3.71s.24-2.56.71-3.7c.47-1.14,1.18-2.18,2.13-3.12h0c1.89-1.89,4.17-2.84,6.83-2.84,1.29,0,2.5.23,3.62.68,1.12.45,2.16,1.14,3.12,2.04.97.93,1.7,1.94,2.19,3.04h0ZM389.28,52.14h11.68c-.16-.55-.37-1.05-.66-1.52-.36-.59-.82-1.12-1.39-1.6h0c-.55-.46-1.15-.8-1.78-1.03-.63-.23-1.3-.34-2.01-.34-1.09,0-2.06.25-2.91.73-.86.49-1.61,1.24-2.24,2.23-.19.3-.35.61-.49.94h0c-.08.19-.15.39-.2.59h0ZM424.19,63.1h-3.19v-11.48c0-.55-.06-1.06-.18-1.52-.12-.46-.3-.88-.55-1.26-.22-.35-.52-.61-.9-.79-.38-.18-.85-.27-1.41-.27-.58,0-1.1.05-1.57.16h0c-.45.11-.85.26-1.2.47-.35.21-.67.46-.96.74-.29.28-.54.6-.76.94-.4.63-.7,1.38-.91,2.24-.21.87-.31,1.86-.31,2.96v7.8h-3.56v-18.52h3.56v2.26c.12-.15.25-.3.38-.44.4-.42.83-.8,1.31-1.13.52-.35,1.07-.62,1.67-.79.59-.18,1.23-.26,1.89-.26s1.25.05,1.78.14c.54.1,1.03.24,1.45.44h0c.42.19.8.42,1.15.69.35.26.67.57.96.9h0c1.14,1.34,1.71,3.08,1.71,5.23v11.48h-.36ZM431.51,47.94h-4.45v-3.36h4.45v-6.91h3.56v6.91h4.41v3.36h-4.41v15.16h-3.56v-15.16h0ZM456.7,56.07c.3-.71.45-1.48.45-2.3s-.15-1.62-.45-2.34c-.3-.72-.75-1.37-1.35-1.97-.6-.6-1.26-1.05-1.97-1.35-.72-.3-1.49-.45-2.34-.45s-1.62.15-2.34.45c-.72.3-1.38.75-1.98,1.35-.6.6-1.05,1.26-1.35,1.98-.3.72-.45,1.49-.45,2.34s.15,1.6.45,2.3c.3.71.75,1.37,1.35,1.97.6.6,1.26,1.05,1.97,1.35.72.3,1.49.45,2.34.45s1.62-.15,2.34-.45c.72-.3,1.37-.75,1.97-1.35.6-.6,1.05-1.26,1.35-1.97h0ZM459.99,50.06c.47,1.14.71,2.38.71,3.7s-.24,2.57-.71,3.71c-.47,1.14-1.18,2.17-2.13,3.1-.95.94-1.99,1.64-3.13,2.11-1.14.47-2.37.71-3.69.71s-2.55-.24-3.69-.71c-1.14-.47-2.18-1.17-3.13-2.11-1.89-1.86-2.84-4.13-2.84-6.81,0-1.33.24-2.56.71-3.7.47-1.14,1.18-2.18,2.13-3.12h0c1.89-1.89,4.17-2.84,6.83-2.84s4.94.95,6.83,2.84c.94.94,1.65,1.98,2.12,3.13h0ZM453.34,34.84h4.22l-.45.59-4.45,5.78-.11.14h-3.06l.3-.54,3.23-5.78.11-.19h.21ZM491.36,45.09l-8.45,20.05-.34.81-.33-.82-5.44-13.51-5.37,13.51-.33.82-.35-.81-8.53-20.05-.22-.51h3.95l.09.23,5,12.84,5.4-13.77.34-.86.34.86,5.4,13.77,5-12.84.09-.23h3.95l-.21.51Z"/>
  </g>
</svg>